<?xml version="1.0" standalone="no"?>
<!DOCTYPE svg PUBLIC "-//W3C//DTD SVG 20010904//EN"
 "http://www.w3.org/TR/2001/REC-SVG-20010904/DTD/svg10.dtd">
<svg version="1.0" xmlns="http://www.w3.org/2000/svg"
 width="600.000000pt" height="600.000000pt" viewBox="0 0 600.000000 600.000000"
 preserveAspectRatio="xMidYMid meet">

<g transform="translate(0.000000,600.000000) scale(0.100000,-0.100000)"
fill="#000000" stroke="none">
<path d="M0 3000 l0 -3000 679 0 680 0 -16 37 c-25 61 -139 437 -173 573 -18
69 -38 139 -45 156 -7 16 -13 51 -13 75 -1 25 -5 56 -10 70 -11 28 -12 32 -12
60 0 12 -19 40 -45 65 -63 60 -101 112 -171 232 -102 177 -95 152 -92 295 2
70 -1 127 -6 127 -5 0 -4 6 2 13 5 6 13 48 16 92 9 137 32 212 76 249 15 12
36 38 45 57 10 19 33 51 51 71 18 21 45 61 60 90 34 69 71 118 89 118 48 0 28
-153 -27 -212 -7 -7 -25 -31 -40 -53 -15 -22 -36 -46 -47 -52 -11 -7 -30 -31
-41 -54 -21 -41 -22 -44 -18 -239 1 -30 -6 -80 -15 -110 -20 -67 -33 -200 -19
-200 12 0 20 23 63 180 7 25 27 62 46 83 18 20 33 40 33 45 1 4 30 38 65 76
35 38 61 74 58 79 -3 6 -1 7 5 4 5 -4 30 14 54 39 23 26 57 62 74 79 16 18 47
55 69 83 39 51 55 58 55 21 0 -32 -27 -78 -104 -174 -123 -155 -137 -178 -186
-328 -17 -54 -38 -110 -46 -125 -8 -15 -14 -33 -14 -41 0 -7 -9 -29 -20 -47
l-21 -33 21 -11 c18 -10 24 -8 36 7 7 10 14 22 14 26 0 11 46 71 85 112 16 17
43 48 60 68 16 20 34 37 38 37 33 0 285 143 294 166 5 13 33 20 33 8 0 -13
-82 -124 -107 -144 -16 -12 -28 -26 -28 -30 0 -5 -35 -47 -77 -93 -56 -61 -85
-103 -104 -150 l-27 -65 22 -31 c12 -17 27 -31 32 -31 6 0 8 -4 5 -9 -3 -5 6
-23 22 -39 15 -17 28 -36 30 -44 2 -7 9 -26 17 -43 7 -16 25 -66 40 -110 15
-44 30 -82 34 -85 13 -11 39 -67 46 -100 4 -19 10 -39 13 -45 4 -5 8 -19 9
-29 2 -11 8 -25 14 -33 6 -7 9 -13 6 -13 -8 0 124 -264 135 -268 4 -2 6 -7 3
-12 -3 -5 2 -16 11 -24 8 -9 12 -16 9 -16 -10 0 60 -124 123 -217 30 -46 59
-83 64 -83 4 0 7 -3 6 -7 -1 -5 10 -27 26 -50 l29 -43 164 0 164 0 -15 28
c-12 25 -23 103 -31 237 -3 61 -7 78 -20 87 -6 5 -6 8 1 8 6 0 11 17 12 37 1
23 8 43 19 50 9 7 13 13 8 13 -4 0 0 9 10 20 13 14 20 46 26 112 5 51 11 99
14 107 3 8 8 46 11 85 3 39 7 82 9 96 20 119 26 169 32 260 4 58 7 115 7 128
-1 18 3 22 20 20 18 -3 21 -9 19 -53 -15 -357 -19 -493 -15 -615 6 -233 6
-248 -5 -262 -9 -11 -27 -82 -38 -152 -31 -187 -32 -206 -13 -206 10 0 19 6
20 13 2 19 4 30 11 62 4 17 9 53 13 80 3 28 14 73 24 102 13 37 15 53 7 57 -9
3 -8 5 1 5 6 1 12 7 12 14 0 7 9 31 19 53 11 21 17 42 14 46 -2 5 0 8 4 8 10
0 36 65 37 95 1 11 5 25 9 32 4 6 4 19 0 30 -3 10 -2 15 2 10 9 -7 21 20 54
123 10 30 33 86 50 123 17 38 28 74 24 80 -3 7 -2 9 2 4 9 -8 41 44 67 108 9
22 27 65 40 95 14 30 28 64 32 75 6 18 9 17 37 -13 43 -46 83 -23 42 24 -42
47 -43 56 -8 128 19 37 40 75 47 84 8 10 20 30 26 46 l13 29 24 -23 c23 -21
25 -22 31 -5 5 12 1 24 -12 34 -26 21 -21 40 32 117 24 35 44 68 44 73 0 5 3
11 7 13 5 2 27 39 50 83 40 77 64 98 85 77 6 -6 3 -16 -10 -28 -31 -29 -60
-93 -71 -154 -8 -48 -41 -221 -97 -505 -9 -44 -17 -105 -19 -135 -2 -30 -5
-62 -8 -70 -6 -17 -6 -22 -10 -105 -1 -33 -5 -62 -8 -65 -4 -3 -9 -25 -12 -50
-10 -75 -17 -114 -22 -129 -3 -7 -8 -34 -11 -59 -3 -25 -7 -49 -10 -54 -3 -4
1 -8 8 -8 10 0 10 -2 0 -8 -7 -5 -14 -37 -17 -76 -2 -37 -7 -72 -11 -78 -5 -7
0 -9 14 -6 19 5 22 2 21 -25 -1 -24 -3 -26 -6 -9 -4 22 -18 29 -26 15 -3 -5
-1 -18 4 -30 9 -24 25 -29 46 -15 13 8 38 99 47 172 4 25 10 72 16 104 5 33 8
62 5 64 -2 3 0 12 5 21 5 10 11 35 14 57 3 21 8 50 11 64 3 14 9 68 14 120 5
52 21 158 35 235 14 77 26 142 26 144 0 2 -10 -4 -22 -15 -21 -18 -21 -18 2
13 24 33 25 38 41 168 5 44 11 96 14 115 2 19 7 57 10 85 4 27 8 52 10 55 2 3
6 23 9 45 4 22 10 54 15 70 9 28 9 27 11 -17 2 -27 3 -56 3 -65 1 -10 6 -21
12 -25 6 -5 5 -8 -3 -8 -10 0 -13 -20 -12 -77 1 -118 -13 -359 -24 -403 -3
-14 -8 -86 -11 -160 -2 -74 -8 -182 -11 -240 -4 -58 -8 -115 -8 -127 -1 -13
-4 -23 -7 -23 -11 0 -17 -38 -8 -47 10 -10 19 -84 9 -78 -4 3 -7 -7 -7 -20 0
-14 4 -25 9 -25 5 0 4 -9 -2 -19 -15 -28 -12 -35 7 -20 15 13 15 12 1 -11 -10
-16 -14 -44 -12 -80 9 -167 8 -209 -5 -224 -8 -9 -11 -19 -8 -23 4 -3 9 2 13
11 9 23 24 10 24 -22 0 -15 5 -44 11 -64 9 -35 13 -38 45 -38 30 0 34 3 30 22
-20 93 -27 140 -32 216 -4 48 -11 92 -16 99 -5 7 -5 13 0 17 5 3 10 17 10 31
-1 22 -3 24 -16 13 -13 -11 -13 -9 1 12 18 26 23 45 9 36 -4 -2 -8 4 -8 14 0
10 3 17 6 15 11 -7 8 59 -3 73 -6 7 -6 12 0 12 5 0 10 6 10 13 1 6 4 77 8 157
8 181 13 266 32 550 4 63 8 165 8 225 0 61 4 113 10 117 7 5 7 8 0 8 -6 0 -9
38 -7 101 2 56 0 108 -4 118 -3 9 -8 27 -9 41 -5 46 -16 85 -26 88 -5 2 -7 7
-4 12 5 8 -14 60 -25 70 -26 23 -49 65 -41 74 17 22 53 146 48 166 -3 11 -2
20 2 20 4 0 7 17 6 38 -1 20 2 53 6 73 8 35 13 134 10 217 -1 27 -8 49 -21 62
-11 11 -15 20 -10 20 6 0 1 10 -10 22 -11 13 -23 33 -26 45 -4 13 -9 23 -13
23 -11 0 -53 88 -47 99 4 5 22 15 42 21 20 7 125 55 233 107 211 102 272 130
283 133 4 1 37 10 72 20 l65 18 -10 -21 c-5 -12 -12 -30 -15 -40 -4 -10 -13
-16 -23 -12 -17 5 -41 -6 -92 -44 -18 -14 -29 -19 -25 -12 6 9 4 10 -10 3 -11
-6 -41 -18 -69 -27 -53 -18 -89 -32 -117 -46 -10 -5 -25 -9 -33 -9 -8 0 -15
-4 -15 -10 0 -5 -3 -9 -7 -8 -16 5 -102 -25 -120 -41 -10 -9 -25 -16 -33 -16
-8 1 -23 -6 -34 -14 -10 -9 -20 -15 -22 -13 -19 11 -46 -34 -27 -47 5 -3 22
-24 38 -46 16 -22 44 -57 62 -78 18 -20 33 -43 33 -50 0 -9 -2 -9 -8 0 -4 6
-6 -75 -5 -181 2 -201 -3 -241 -47 -331 -11 -23 -20 -44 -20 -47 0 -3 12 -19
28 -36 46 -52 50 -59 75 -119 34 -83 39 -132 38 -343 0 -172 -4 -231 -18 -304
-4 -25 -3 -28 13 -22 18 6 18 5 1 -8 -16 -12 -18 -37 -23 -217 -3 -112 -11
-276 -18 -364 -15 -197 -14 -522 4 -632 l12 -83 569 0 569 0 -33 48 c-67 94
-91 160 -93 244 0 42 2 82 6 87 3 6 21 -26 39 -72 36 -89 67 -160 109 -249
l27 -57 738 0 737 -1 0 3000 0 3000 -3000 0 -3000 0 0 -3000z m3085 2579 c2
-79 5 -148 6 -154 0 -5 0 -35 0 -65 -2 -74 3 -115 23 -175 21 -62 76 -165 87
-165 5 0 8 -3 7 -7 -1 -5 3 -17 9 -28 7 -11 20 -36 31 -54 22 -40 43 -52 37
-22 -2 12 -6 25 -10 30 -3 5 -1 12 5 16 5 3 10 11 10 16 0 6 -4 8 -9 4 -12 -7
-30 25 -24 43 3 6 9 10 14 6 5 -3 9 0 9 5 0 14 -13 14 -26 1 -8 -8 -14 -7 -21
2 -12 15 -38 90 -35 101 1 4 -2 7 -8 7 -5 0 -10 7 -10 15 0 8 7 15 15 15 8 0
15 5 15 11 0 6 -8 8 -18 5 -14 -5 -22 3 -35 29 -10 20 -12 37 -7 40 6 3 10 11
10 16 0 6 -4 7 -10 4 -5 -3 -10 0 -10 9 0 8 -6 17 -12 19 -10 4 -9 8 2 16 10
7 11 14 5 19 -6 4 -12 23 -13 43 -2 19 -5 44 -6 55 -2 10 1 22 6 25 14 9 58
-2 58 -14 0 -14 32 -36 53 -37 10 0 15 -5 12 -10 -3 -6 1 -17 9 -25 8 -9 13
-22 10 -30 -4 -8 -1 -15 4 -15 6 0 9 12 6 28 -4 26 -4 26 11 7 9 -11 25 -30
35 -42 19 -22 19 -23 -3 -34 l-22 -12 25 -11 c14 -6 33 -19 43 -29 10 -10 23
-15 29 -11 7 4 8 3 4 -4 -4 -7 -16 -12 -27 -12 -10 0 -19 -4 -19 -10 0 -5 -7
-10 -15 -10 -8 0 -15 -4 -15 -9 0 -6 16 -3 35 5 41 17 45 17 45 4 0 -11 -10
-25 -43 -61 -10 -11 -15 -25 -11 -31 4 -7 3 -8 -5 -4 -7 5 -23 -3 -38 -18 -20
-20 -22 -26 -9 -26 9 0 16 5 16 10 0 6 6 10 13 9 27 -3 37 2 37 20 0 11 13 30
28 43 15 12 28 27 29 32 1 10 23 26 36 26 4 0 7 -9 7 -19 0 -14 5 -18 20 -14
11 3 20 0 20 -6 0 -6 3 -10 8 -9 15 4 52 -23 52 -39 0 -11 3 -13 13 -5 10 8
20 5 40 -14 15 -14 25 -29 22 -33 -2 -5 3 -15 12 -22 14 -12 16 -12 8 1 -6 12
-5 13 5 3 11 -10 11 -15 -1 -30 -12 -16 -11 -16 8 1 22 18 23 18 29 0 13 -41
27 -63 37 -57 6 4 7 1 1 -8 -5 -8 -9 -39 -10 -69 0 -30 -4 -70 -8 -87 -5 -22
-4 -33 3 -33 12 0 12 1 16 98 4 73 9 92 27 92 10 0 9 -3 -1 -9 -12 -8 -12 -12
-3 -24 7 -8 15 -59 19 -113 l6 -99 -38 -18 -38 -18 7 41 c4 24 2 40 -4 40 -9
0 -12 -11 -14 -57 -1 -18 -36 -53 -54 -53 -5 0 -21 -11 -36 -25 -14 -13 -26
-20 -26 -15 0 5 5 12 11 16 11 7 47 80 54 112 2 9 7 28 11 42 6 24 6 24 -8 5
-12 -16 -39 -82 -43 -105 -3 -14 -59 -116 -71 -128 -8 -8 -26 -37 -41 -65 -34
-68 -74 -117 -95 -117 -10 0 -18 -4 -18 -10 0 -13 13 -13 42 3 14 7 23 19 21
27 -4 13 -3 13 6 0 7 -10 6 -19 -3 -30 -7 -8 -12 -24 -12 -35 1 -11 -3 -23 -8
-26 -5 -4 -5 -12 -1 -19 4 -7 32 37 70 114 34 69 74 137 89 151 41 38 111 84
163 106 26 11 51 26 55 32 4 7 8 8 8 3 0 -5 9 -1 20 9 12 11 27 20 34 21 18 3
76 45 76 56 0 4 4 8 10 8 14 0 120 73 120 83 0 4 4 6 9 3 4 -3 23 6 41 19 19
14 35 25 36 25 1 0 1 -11 0 -24 0 -13 -3 -22 -5 -20 -2 2 -14 -15 -25 -38 -33
-67 -40 -78 -48 -78 -5 0 -8 -12 -8 -26 0 -23 -54 -150 -70 -164 -3 -3 -23
-30 -44 -61 -21 -31 -53 -72 -72 -90 -19 -18 -34 -39 -34 -47 0 -7 -4 -11 -9
-8 -13 9 -34 -21 -25 -36 6 -10 5 -11 -8 -1 -12 11 -18 9 -32 -6 -10 -11 -15
-25 -11 -31 3 -6 1 -9 -5 -8 -12 3 -37 -39 -67 -112 -26 -65 -55 -99 -107
-124 -22 -11 -32 -12 -35 -4 -2 7 1 14 8 16 6 2 9 8 5 13 -3 5 -1 9 5 9 5 0 5
12 -2 30 -6 17 -14 30 -18 30 -14 0 -30 -58 -23 -83 4 -20 2 -27 -9 -27 -8 0
-18 -7 -21 -16 -6 -15 -4 -15 11 -3 9 8 14 9 10 3 -4 -7 0 -17 8 -24 10 -9 15
-9 15 -1 0 6 7 11 15 11 8 0 15 -7 15 -15 0 -8 -4 -15 -10 -15 -5 0 -10 -8
-10 -17 0 -16 -1 -15 -13 1 -11 16 -13 15 -15 -10 -1 -20 2 -25 14 -20 9 3 22
6 30 6 9 0 12 5 9 10 -8 13 29 65 82 114 36 34 60 76 55 99 -1 4 2 7 7 7 5 0
11 10 14 22 4 12 8 20 11 17 9 -9 -25 -93 -96 -237 -39 -79 -71 -150 -71 -158
0 -8 -4 -14 -9 -14 -4 0 -8 -9 -8 -20 0 -11 -4 -20 -10 -20 -6 0 -10 31 -10
74 0 41 -4 77 -9 80 -8 5 -14 -50 -14 -127 0 -16 -3 -23 -7 -17 -4 7 -12 -1
-21 -22 -17 -41 -51 -75 -124 -124 -31 -20 -59 -43 -62 -51 -3 -7 -10 -13 -17
-13 -6 0 -34 -22 -61 -48 -28 -26 -82 -69 -120 -95 -81 -56 -220 -162 -254
-194 -38 -35 -85 -46 -181 -41 -74 5 -91 9 -127 34 -35 25 -100 105 -112 139
-13 39 -75 196 -86 220 -7 17 -28 68 -45 114 -18 45 -38 95 -46 110 -8 14 -14
32 -14 39 0 7 -4 10 -10 7 -5 -3 -12 4 -14 17 -8 33 -2 117 7 111 10 -6 7 172
-4 225 -15 71 -20 118 -12 106 4 -6 15 -13 25 -17 14 -5 15 -3 2 21 -16 32
-18 74 -4 88 5 5 25 8 44 6 33 -4 34 -6 39 -55 5 -57 24 -77 73 -77 22 0 42
10 65 31 29 27 36 29 57 19 35 -16 37 -7 5 28 -36 39 -75 55 -192 78 -71 13
-96 15 -99 6 -2 -7 -8 -10 -13 -6 -16 10 -10 24 11 24 25 0 46 46 30 65 -5 6
-7 15 -3 18 3 4 -2 7 -11 7 -13 0 -16 5 -11 18 14 38 44 176 39 184 -3 4 0 8
5 8 6 0 10 3 9 8 -1 4 3 17 10 30 7 12 10 22 7 22 -4 0 -3 6 2 13 8 12 13 32
15 55 1 6 6 12 11 12 5 0 7 7 3 15 -3 8 0 14 7 12 7 -1 11 3 10 9 -1 7 7 20
17 29 12 11 20 13 20 7 0 -7 7 -12 15 -12 9 0 12 6 9 15 -4 8 -12 15 -20 15
-12 0 -12 4 -2 20 7 11 15 20 19 20 3 0 23 -16 45 -35 21 -19 46 -35 54 -35
19 0 -42 56 -70 65 -26 8 -21 29 8 33 39 6 170 -97 155 -121 -3 -6 -1 -7 6 -3
6 4 9 18 7 31 -5 24 -53 85 -68 85 -8 0 -17 6 -51 36 -7 5 -21 13 -31 17 -27
11 -93 -62 -137 -149 -45 -92 -45 -91 -28 -79 8 6 7 3 -2 -6 -18 -17 -37 -65
-22 -56 5 4 10 0 10 -7 0 -8 -6 -12 -12 -10 -11 5 -42 -82 -49 -139 -2 -12 -6
-29 -9 -37 -23 -56 -103 -381 -106 -430 -4 -53 -9 -88 -15 -98 -4 -7 -1 -12 6
-12 10 0 10 -2 -1 -9 -23 -15 -18 -428 6 -505 3 -11 7 -39 9 -63 2 -23 7 -50
12 -60 5 -10 7 -24 5 -30 -3 -7 -1 -13 4 -13 4 0 9 -16 11 -35 1 -20 9 -46 17
-59 8 -12 12 -26 9 -29 -4 -4 1 -10 10 -13 10 -4 13 -9 8 -13 -7 -4 -4 -15 7
-29 16 -22 17 -22 18 -2 1 11 -2 20 -6 20 -4 0 -8 6 -8 13 0 6 -4 20 -8 30 -9
21 8 23 25 2 7 -8 16 -15 21 -15 5 0 6 7 3 15 -4 8 -11 15 -18 15 -29 0 -75
86 -76 142 0 15 -7 34 -16 42 -8 9 -11 16 -5 16 6 0 8 12 6 28 -21 122 -25
181 -24 301 0 83 -2 102 -13 95 -10 -6 -11 -5 -2 7 17 21 25 61 11 52 -9 -5
-9 -3 -1 8 6 8 12 31 12 52 1 21 4 42 7 47 4 6 0 10 -7 10 -8 0 -9 3 -3 8 6 4
11 16 12 27 1 11 9 54 18 95 9 41 18 86 21 100 7 32 14 39 15 14 0 -10 2 -32
4 -49 2 -16 7 -54 10 -82 4 -29 11 -53 17 -53 6 0 7 -5 2 -12 -5 -7 -9 -60 -9
-118 0 -58 -4 -108 -8 -111 -5 -3 -11 -24 -14 -45 -2 -22 -6 -46 -7 -54 -7
-39 -20 -157 -18 -175 5 -75 13 -128 21 -144 6 -10 8 -21 4 -24 -3 -4 -1 -12
5 -19 6 -7 11 -17 11 -23 1 -15 24 -12 29 4 3 8 0 11 -6 7 -6 -4 -11 1 -11 11
0 41 -14 142 -26 195 -9 40 -10 59 -2 67 8 8 7 11 -3 11 -11 0 -12 2 -3 8 7 4
16 24 20 45 5 23 12 34 19 29 6 -4 30 -52 53 -107 24 -55 50 -109 59 -119 13
-15 14 -17 2 -11 -12 7 -13 6 -4 -6 7 -8 15 -29 19 -46 3 -18 12 -33 18 -33 7
0 13 -14 13 -30 1 -17 8 -37 15 -46 7 -9 14 -23 15 -32 2 -10 5 -26 8 -37 2
-11 5 -25 5 -31 1 -6 17 -32 37 -57 39 -50 141 -109 189 -109 27 0 27 -1 27
-68 1 -48 -7 -56 -67 -70 -5 -1 -17 -5 -25 -10 -8 -4 -27 -10 -42 -14 -23 -5
-28 -3 -29 11 0 15 -2 15 -9 -3 -5 -12 -35 -32 -74 -50 -36 -16 -66 -33 -66
-37 0 -5 -4 -6 -10 -2 -5 3 -18 -3 -30 -15 -11 -11 -20 -18 -20 -15 0 3 -16
-1 -35 -9 l-34 -15 -7 37 c-3 20 -10 51 -15 67 -6 23 -7 18 -3 -20 3 -27 8
-58 11 -67 3 -13 -1 -18 -17 -18 -35 0 -45 -40 -26 -99 18 -57 21 -91 6 -91
-5 0 -10 -7 -10 -15 0 -29 19 -14 26 20 3 19 9 35 13 35 3 0 30 -9 59 -20 29
-11 63 -20 76 -20 14 0 36 -4 50 -10 25 -9 25 -10 12 -54 -8 -25 -12 -47 -9
-50 19 -19 -90 -75 -162 -82 -22 -3 -47 -7 -55 -11 -8 -3 -26 -8 -39 -10 -20
-3 -23 -1 -18 16 3 12 0 24 -6 28 -7 3 -9 3 -5 -2 4 -4 3 -14 -3 -22 -6 -7 -8
-13 -3 -13 10 0 -17 -20 -28 -20 -10 0 -1 102 18 203 9 45 17 89 18 97 1 9 5
20 8 26 4 5 7 86 7 179 0 94 0 177 0 187 1 11 7 15 24 11 21 -5 21 -4 -3 16
-14 11 -36 21 -50 21 -19 0 -22 2 -10 10 12 7 10 11 -10 19 -14 5 -21 10 -17
10 5 1 -3 14 -16 31 -14 16 -33 56 -42 87 -16 56 -54 133 -80 163 -18 21 -34
116 -35 205 -1 40 8 174 15 230 1 6 -3 18 -8 29 -6 12 -5 16 1 12 11 -7 26 40
17 54 -4 6 -2 10 3 10 5 0 13 21 17 47 4 25 20 70 36 98 35 62 35 65 8 65 -16
0 -19 3 -12 13 9 11 25 78 38 157 4 19 10 54 15 77 6 23 7 50 3 59 -4 11 -2
15 4 11 6 -4 11 3 11 16 1 12 10 60 22 107 26 110 24 103 34 119 7 10 5 12 -5
6 -8 -5 -7 0 4 12 20 22 23 38 5 27 -6 -4 0 8 14 27 26 34 44 77 40 92 -1 5 2
6 7 3 14 -9 21 20 8 33 -9 9 -8 11 6 5 10 -3 17 -3 15 2 -2 5 10 26 25 46 17
21 26 42 21 49 -4 7 -3 9 2 6 6 -3 21 11 34 32 13 21 36 46 52 55 15 10 28 22
28 27 0 6 3 8 8 6 4 -3 18 0 32 6 14 5 33 9 44 8 11 -2 16 2 14 11 -6 17 -68
14 -79 -4 -5 -7 -9 -9 -9 -4 0 11 -47 -20 -88 -58 -38 -35 -75 -100 -64 -111
4 -5 2 -5 -5 -1 -6 3 -16 -1 -21 -10 -8 -15 -11 -13 -16 12 -3 16 -7 44 -8 62
-1 17 -7 32 -13 32 -5 0 -4 4 3 9 8 4 13 10 11 12 -2 4 9 89 16 119 2 8 15 48
29 88 13 39 22 72 18 72 -4 0 -2 4 4 8 14 9 55 132 48 143 -3 5 0 9 6 9 7 0
10 7 6 15 -3 8 -1 15 4 15 6 0 10 8 10 19 0 10 7 34 16 52 14 32 15 26 9 -106
-3 -77 -10 -158 -15 -180 -10 -42 -14 -205 -5 -205 12 0 104 50 110 60 4 6 11
8 16 4 6 -3 18 -2 27 2 20 9 20 9 55 18 15 5 27 15 27 25 0 9 9 22 20 29 11 7
20 8 20 3 0 -5 -7 -11 -15 -15 -25 -9 -17 -24 10 -18 20 3 25 10 23 30 -2 19
2 25 17 27 28 3 98 23 113 34 26 16 -16 21 -59 6 -50 -18 -48 -18 -45 -2 4 25
18 39 29 28 7 -7 15 -5 24 7 9 10 12 11 7 2 -7 -13 -5 -13 9 -1 19 15 195 27
251 17 32 -6 35 -9 25 -27 -7 -15 -16 -18 -32 -13 -21 6 -21 6 -5 -12 16 -19
17 -32 5 -64 -11 -29 -18 -90 -10 -90 4 0 15 6 24 13 18 14 54 152 43 168 -4
8 -3 9 4 5 7 -4 12 -1 12 8 0 8 11 50 25 93 25 80 26 86 40 161 4 23 9 41 11
39 3 -2 6 -69 9 -148z m-568 -281 c-3 -8 -6 -5 -6 6 -1 11 2 17 5 13 3 -3 4
-12 1 -19z m-35 -20 c-7 -7 -12 -8 -12 -2 0 14 12 26 19 19 2 -3 -1 -11 -7
-17z m1064 -74 c22 -9 55 -29 75 -45 20 -16 45 -29 55 -29 16 0 16 -2 4 -10
-12 -7 -12 -12 4 -29 28 -31 14 -26 -25 9 -19 16 -37 30 -40 30 -8 0 -125 90
-117 90 3 0 23 -7 44 -16z m-116 -4 c0 -5 -5 -10 -11 -10 -5 0 -7 5 -4 10 3 6
8 10 11 10 2 0 4 -4 4 -10z m330 -220 c0 -5 -2 -10 -4 -10 -2 0 -12 -3 -22 -7
-16 -6 -17 -5 -4 10 17 19 30 22 30 7z m-1526 -519 c3 -5 -1 -11 -9 -15 -9 -3
-15 0 -15 9 0 16 16 20 24 6z m1692 -212 c4 -23 11 -36 17 -32 5 3 7 1 3 -5
-3 -6 -1 -23 5 -39 6 -15 13 -39 16 -53 2 -13 8 -29 13 -35 4 -5 13 -37 20
-70 6 -33 14 -69 16 -80 4 -16 3 -17 -5 -5 -6 8 -11 25 -11 38 0 12 -4 22 -9
22 -13 0 -2 -61 13 -80 7 -8 16 -26 20 -40 7 -23 9 -38 20 -100 3 -14 5 -27 6
-30 1 -3 1 -16 0 -29 -1 -14 2 -21 9 -17 7 4 9 1 5 -8 -3 -8 0 -32 6 -52 12
-35 15 -134 6 -180 -14 -72 -17 -146 -6 -159 10 -12 10 -15 -2 -15 -7 0 -14
-8 -15 -17 -3 -38 -20 -88 -29 -86 -6 1 -11 -7 -11 -18 -1 -10 3 -19 9 -19 6
0 6 -6 -2 -15 -9 -11 -9 -15 -1 -15 9 0 9 -5 1 -20 -6 -11 -8 -20 -6 -20 3 0
1 -12 -5 -27 -7 -20 -6 -28 3 -35 9 -5 9 -8 1 -8 -7 0 -11 -18 -10 -50 1 -28
-1 -50 -5 -50 -5 0 -8 -9 -8 -20 0 -11 4 -20 9 -20 9 0 26 -38 35 -82 4 -16 2
-28 -4 -28 -5 0 -10 5 -10 10 0 6 -4 10 -10 10 -11 0 -14 -43 -3 -54 4 -3 8
-20 9 -35 1 -16 8 -40 15 -53 7 -12 12 -27 11 -31 -1 -4 5 -21 14 -38 8 -17
13 -33 11 -36 -3 -2 -33 14 -67 36 -34 23 -65 41 -69 41 -4 0 -13 16 -20 35
-7 19 -17 35 -22 35 -6 0 -6 8 1 20 6 11 8 20 4 20 -3 0 -1 7 6 15 7 8 10 15
7 15 -3 0 -1 16 4 36 8 26 7 39 -2 50 -9 12 -9 13 3 9 17 -7 39 34 44 83 2 24
-1 32 -14 33 -10 0 -12 3 -4 6 6 2 12 20 12 38 0 18 7 69 15 112 19 99 19 100
-5 78 -11 -10 -20 -15 -20 -11 0 4 10 16 22 26 22 17 23 25 23 152 0 136 -12
334 -22 377 -3 13 -7 38 -8 55 -2 17 -3 34 -4 39 0 4 -9 7 -18 8 -15 0 -15 2
2 9 11 5 17 9 13 9 -3 1 -13 4 -22 7 -12 4 -16 0 -16 -15 0 -12 6 -21 13 -22
7 0 8 -2 1 -5 -7 -3 -8 -27 -3 -72 24 -217 29 -425 13 -532 -7 -45 -8 -76 -2
-78 5 -2 4 -10 -2 -17 -17 -20 -22 -87 -8 -97 10 -6 10 -8 1 -8 -8 0 -11 -14
-7 -46 2 -26 6 -50 9 -54 2 -4 -5 -24 -17 -46 -11 -21 -22 -57 -24 -79 -1 -22
-3 -41 -4 -42 -2 -2 -3 -8 -4 -15 0 -7 -12 -15 -26 -18 -14 -4 -24 -12 -22
-19 1 -7 -2 -10 -8 -6 -6 4 -17 1 -25 -5 -8 -6 -19 -9 -25 -5 -13 8 -11 94 3
113 5 6 7 12 4 12 -3 0 -2 14 3 30 6 20 5 30 -2 30 -7 0 -7 4 0 13 10 11 22
72 39 187 6 40 32 110 63 166 23 44 25 64 8 65 -7 0 -30 1 -51 3 -21 2 -40 -1
-43 -6 -3 -4 -12 -8 -20 -8 -8 0 -13 4 -9 9 3 5 1 12 -5 16 -6 4 -7 13 -1 23
13 25 5 124 -19 242 -12 58 -21 131 -21 163 0 31 -4 57 -10 57 -5 0 -9 -13 -9
-29 0 -16 -3 -38 -6 -48 -5 -15 -4 -15 5 -3 6 8 11 10 11 4 0 -5 -5 -15 -11
-21 -7 -7 -9 -22 -4 -40 4 -15 9 -39 10 -53 5 -46 12 -77 19 -89 7 -11 8 -58
7 -197 -1 -39 -3 -42 -41 -54 -44 -15 -52 -11 -54 22 -1 13 -7 23 -16 23 -17
0 -40 19 -40 33 0 6 6 12 13 15 10 4 10 7 0 18 -11 11 -13 10 -13 -3 0 -9 -5
-20 -12 -24 -6 -4 -8 -3 -4 4 3 6 -7 20 -22 31 l-29 20 9 -57 c5 -31 13 -69
18 -84 5 -18 5 -28 -1 -28 -5 0 -9 -7 -9 -15 0 -14 -40 -38 -49 -29 -2 2 7 28
19 59 29 71 21 82 -10 14 -19 -43 -24 -49 -32 -35 -12 21 -2 65 19 89 10 10
11 17 5 17 -6 0 -18 -12 -25 -27 l-14 -27 -8 23 c-4 13 -2 28 3 33 6 6 8 17 5
25 -4 10 0 13 12 11 10 -2 20 3 23 10 2 8 -2 12 -13 10 -10 -2 -20 3 -23 11
-3 8 0 11 6 7 6 -4 16 2 22 13 16 30 -6 36 -25 7 -9 -14 -18 -31 -19 -38 -2
-7 -6 -21 -11 -30 -12 -28 3 -134 21 -146 6 -4 11 -16 11 -28 1 -16 -12 -26
-63 -48 -35 -16 -64 -33 -64 -39 0 -6 -3 -8 -6 -4 -11 11 -206 -94 -211 -113
-3 -11 -17 -21 -32 -25 -19 -4 -26 -12 -27 -30 -1 -14 3 -25 9 -25 6 0 7 -3 4
-6 -8 -8 33 -84 45 -84 4 0 8 -7 8 -16 0 -8 5 -12 10 -9 6 4 10 3 9 -2 -4 -21
3 -34 33 -64 31 -30 33 -37 38 -128 3 -53 2 -109 -3 -126 -4 -16 -10 -77 -13
-135 -3 -62 -10 -113 -18 -125 -7 -11 -14 -24 -15 -30 -1 -5 -11 -20 -22 -31
-27 -28 -22 -52 20 -93 l34 -33 -22 -38 c-11 -20 -18 -40 -14 -44 3 -3 2 -6
-4 -6 -6 0 -27 -15 -46 -33 -29 -26 -35 -38 -32 -59 3 -15 0 -30 -6 -33 -6 -4
-10 -1 -8 6 6 46 0 51 -43 44 -23 -4 -49 -12 -58 -17 -11 -7 -28 -5 -55 7 -22
10 -44 17 -48 16 -4 0 -17 8 -28 18 -12 11 -27 17 -35 14 -13 -5 -28 5 -69 47
-16 15 -21 28 -15 34 6 6 6 14 -1 23 -7 7 -8 13 -5 13 4 0 0 7 -9 16 -14 15
-14 19 7 52 12 21 28 43 34 50 7 6 16 21 19 32 3 11 11 20 16 20 5 0 9 5 9 11
0 23 95 168 113 173 15 4 18 11 15 30 -3 14 -1 26 4 26 4 0 6 12 4 28 -2 15
-7 68 -11 117 -3 50 -12 131 -20 180 -7 50 -19 135 -25 190 -12 111 -15 128
-25 166 -6 22 -1 28 41 49 26 14 49 33 52 42 2 10 11 18 18 18 8 0 17 7 20 15
4 8 13 15 21 15 8 0 11 5 8 10 -3 6 1 10 9 10 8 0 52 31 98 68 46 38 103 81
127 97 25 15 54 36 65 46 11 11 25 19 31 19 7 0 24 11 39 25 15 14 30 25 35
25 10 0 92 78 114 110 19 25 19 25 13 -59 -4 -67 -10 -88 -26 -103 -20 -18
-19 -45 1 -32 5 3 7 10 4 15 -4 5 -1 9 4 9 6 0 11 -9 11 -21 0 -11 4 -17 10
-14 6 3 7 -1 4 -9 -3 -9 -1 -16 5 -16 6 0 11 16 11 35 0 19 4 35 9 35 13 0 51
-82 58 -124 9 -55 23 -53 21 3 -2 28 -4 48 -7 45 -2 -2 -15 16 -28 41 -19 39
-22 56 -17 113 7 91 12 134 17 152 16 61 23 79 44 112 12 21 23 42 23 47 0 5
3 11 8 13 4 2 22 36 41 76 19 39 38 72 43 72 4 0 7 3 7 8 -3 19 2 40 15 57 12
17 13 12 12 -41 -2 -63 1 -84 14 -84 5 0 7 54 6 120 -1 66 2 120 6 120 4 0 8
10 8 23 0 12 16 39 36 60 l36 38 14 -27 c8 -15 17 -44 20 -65z m-2748 -99 c16
-65 26 -132 23 -157 -2 -18 1 -22 16 -17 12 4 14 3 6 -3 -15 -11 3 -88 36
-156 21 -43 28 -97 14 -97 -20 0 -76 44 -91 71 -9 17 -34 57 -55 89 -33 49
-38 66 -38 112 0 85 21 167 53 205 15 18 23 8 36 -47z m327 -647 c35 -38 72
-79 83 -93 31 -40 102 -180 102 -201 0 -11 4 -18 8 -15 4 2 6 -11 4 -31 -3
-20 -1 -33 4 -30 5 3 9 -39 9 -94 0 -54 -3 -99 -8 -99 -4 0 -6 -3 -5 -7 3 -15
-24 -128 -43 -174 -10 -26 -15 -50 -11 -55 4 -4 1 -4 -7 1 -11 6 -13 2 -9 -19
4 -17 0 -29 -10 -35 -8 -5 -12 -15 -9 -24 3 -9 1 -17 -4 -19 -5 -2 -11 -46
-12 -98 -2 -102 12 -155 52 -196 43 -45 55 -92 56 -214 0 -105 -2 -120 -26
-165 -23 -45 -29 -51 -66 -56 -27 -3 -60 -20 -97 -48 -31 -23 -90 -60 -131
-83 l-75 -40 0 34 c0 18 -5 53 -11 77 -9 43 -9 44 35 91 63 67 135 181 141
224 8 49 -16 92 -57 101 -26 6 -35 3 -52 -17 -12 -13 -39 -46 -61 -72 -83 -99
-101 -114 -135 -110 -26 3 -38 -4 -75 -43 -24 -25 -49 -61 -55 -79 -18 -52
-32 -41 -27 20 4 48 12 64 67 138 73 96 94 138 111 226 12 63 12 63 -18 100
-41 50 -64 51 -113 6 -22 -20 -40 -41 -40 -45 0 -13 -53 -89 -62 -89 -5 0 -7
-4 -4 -9 3 -5 -1 -14 -8 -20 -12 -10 -14 -5 -14 33 0 56 -5 71 -54 174 -31 63
-39 90 -34 113 9 44 35 96 49 96 7 0 19 4 28 7 11 5 24 -3 41 -22 14 -16 35
-33 47 -37 38 -12 128 -7 177 10 42 14 98 45 82 45 -4 0 4 12 18 28 14 15 32
34 39 42 22 25 54 102 48 117 -3 7 0 13 6 13 6 0 10 3 9 8 -1 4 4 31 11 60 11
42 20 57 51 80 87 62 101 150 42 270 -53 109 -89 292 -56 292 3 0 34 -30 69
-67z m2672 -19 c-3 -3 -12 -4 -19 -1 -8 3 -5 6 6 6 11 1 17 -2 13 -5z m-30
-105 c72 -29 159 -60 176 -63 25 -4 334 -122 356 -135 12 -8 10 -18 -11 -63
-14 -29 -43 -105 -63 -168 -29 -92 -149 -454 -171 -519 -6 -17 -207 253 -289
387 -56 92 -57 95 -46 135 7 23 13 47 14 52 2 6 5 15 9 20 3 6 8 26 11 45 l6
35 -14 -40 c-8 -22 -18 -48 -21 -57 -9 -25 -20 -22 -33 10 -11 27 -11 193 0
186 7 -4 39 125 39 160 0 30 0 30 37 15z m-553 -78 c38 -37 49 -68 20 -57 -10
4 -22 -1 -30 -11 -12 -17 -13 -16 -22 7 -11 29 -4 49 10 29 8 -11 9 -11 5 1
-2 8 -11 14 -19 12 -8 -1 -15 4 -15 13 0 8 5 11 11 8 6 -3 5 0 -1 8 -7 7 -13
24 -12 39 0 23 1 23 9 5 4 -11 24 -36 44 -54z m-811 -231 c8 -22 12 -40 7 -40
-5 0 -5 -12 -1 -27 4 -16 4 -44 0 -63 -3 -19 -7 -27 -8 -16 -1 13 -6 16 -18
11 -30 -12 -87 -25 -113 -24 -25 0 -25 0 5 16 17 9 33 20 36 25 3 5 9 9 13 9
16 -2 23 1 49 25 24 20 27 27 17 40 -11 13 -15 13 -31 -2 -28 -25 -51 -14 -55
27 -3 33 0 37 29 47 50 16 53 14 70 -28z m993 -142 c-4 -29 -9 -66 -11 -83 -7
-68 -17 -130 -22 -135 -2 -3 -10 3 -17 12 -9 13 -11 33 -5 70 8 52 50 188 58
188 2 0 1 -24 -3 -52z m-1161 -27 c-3 -5 -27 -17 -54 -26 -27 -9 -57 -25 -67
-36 -11 -12 -39 -31 -64 -44 -48 -24 -77 -52 -76 -72 1 -13 41 -39 114 -74 35
-17 41 -23 31 -35 -6 -7 -9 -27 -7 -44 3 -16 2 -30 -2 -30 -4 0 -8 -26 -9 -57
-1 -32 -8 -116 -17 -188 -12 -103 -19 -133 -34 -147 -25 -23 -25 -39 -2 -68
14 -18 17 -33 11 -79 -3 -31 -5 -72 -5 -93 1 -20 -2 -34 -6 -31 -5 2 -9 -11
-9 -29 -3 -62 -8 -93 -24 -148 -8 -30 -17 -63 -20 -74 -2 -10 -8 -23 -13 -30
-5 -6 -14 -24 -21 -41 -10 -28 -10 -27 -5 15 3 25 17 101 31 169 13 69 23 137
21 152 -3 16 -1 26 3 23 9 -5 4 52 -7 81 -4 11 -18 31 -32 45 -13 14 -28 35
-33 48 -5 14 -14 20 -21 16 -6 -4 -8 -3 -4 4 3 5 1 12 -6 14 -21 7 1 25 47 38
47 13 62 25 62 50 1 8 4 35 7 60 4 25 11 86 17 135 5 50 11 101 14 115 19 98
18 107 -6 123 -13 8 -40 18 -59 22 -61 11 -128 36 -140 50 -9 11 -4 17 27 31
21 9 41 16 46 16 4 -1 7 3 7 8 0 6 5 10 11 10 7 0 28 10 47 23 33 20 227 105
245 106 5 1 6 -3 2 -8z m1434 -201 c4 0 8 -6 9 -12 0 -7 3 -31 7 -53 l6 -40
-14 31 c-8 17 -17 48 -19 70 -3 21 -3 31 -1 22 2 -10 8 -18 12 -18z m-2814
-40 c-3 -5 -13 -10 -21 -10 -8 0 -12 -4 -9 -10 3 -5 4 -10 1 -10 -17 0 -13 22
6 29 30 13 30 13 23 1z m2618 -24 c4 -10 1 -13 -8 -9 -8 3 -12 9 -9 14 7 12
11 11 17 -5z m-3214 -252 c40 -24 114 -197 93 -219 -3 -3 0 -5 7 -5 7 0 10 -4
6 -9 -3 -6 1 -42 9 -82 9 -39 14 -75 11 -79 -6 -10 -16 -65 -25 -135 -4 -33
-8 -49 -9 -35 -2 14 -4 32 -5 40 -2 8 -6 43 -10 78 -4 35 -16 83 -27 108 -10
25 -21 59 -24 75 -3 16 -12 48 -20 72 -7 23 -16 53 -19 67 -3 14 -10 41 -15
60 -12 38 -14 80 -5 80 3 0 18 -7 33 -16z m2034 -394 c-3 -11 -9 -17 -14 -14
-14 8 -10 34 5 34 9 0 12 -7 9 -20z m-1498 -10 c3 -5 0 -10 -8 -10 -7 0 -24
-11 -37 -25 -13 -14 -26 -23 -28 -20 -6 6 48 65 59 65 4 0 11 -4 14 -10z
m1491 -67 c-3 -7 -1 -13 5 -13 6 0 7 -4 4 -10 -3 -5 -1 -10 4 -10 6 0 11 -6
11 -13 0 -8 18 -20 40 -27 22 -7 40 -18 40 -23 0 -5 11 -7 25 -5 19 4 25 1 25
-13 0 -15 -8 -19 -37 -19 -33 0 -47 9 -110 70 -66 65 -71 73 -61 94 l10 24 24
-21 c14 -12 22 -27 20 -34z m63 -38 c0 -5 -9 1 -19 14 -11 13 -20 28 -20 35 0
6 9 0 20 -14 11 -14 20 -29 19 -35z m394 -5 c-22 -25 -32 -25 -30 -2 0 11 10
19 24 20 22 2 22 1 6 -18z m-328 -20 c3 -6 -1 -7 -9 -4 -18 7 -21 14 -7 14 6
0 13 -4 16 -10z m-205 -7 c0 -5 20 -21 45 -38 24 -16 45 -33 45 -36 0 -4 -30
-10 -67 -14 -36 -4 -72 -9 -80 -12 -16 -6 -13 31 4 48 6 6 9 18 6 27 -4 9 -2
13 4 9 6 -4 13 0 17 8 5 15 26 21 26 8z m285 -14 c-3 -4 3 -10 12 -13 14 -6
15 -9 4 -16 -9 -5 -19 -3 -28 5 -17 18 -17 32 2 32 8 0 12 -4 10 -8z m145 -9
c-20 -13 -73 -13 -65 0 3 6 23 10 43 10 28 0 33 -3 22 -10z m-1760 -48 c0 -10
6 -24 13 -31 10 -11 9 -12 -2 -6 -11 6 -13 3 -8 -14 7 -29 -1 -51 -19 -51 -7
0 -24 -19 -38 -42 -18 -31 -25 -36 -23 -20 1 12 4 22 8 22 4 0 9 12 12 28 9
44 27 115 33 124 9 14 24 9 24 -10z m1776 -23 c3 -5 -6 -24 -20 -42 -14 -19
-23 -37 -19 -40 3 -4 2 -7 -4 -7 -5 0 -18 -16 -29 -35 -17 -33 -34 -46 -34
-26 0 10 -43 55 -88 93 -36 30 -32 36 29 43 24 3 60 8 79 10 19 3 36 9 38 14
3 10 40 3 48 -10z m-237 -80 c25 -22 51 -44 56 -48 6 -4 22 -22 36 -40 l26
-32 -19 -39 c-14 -28 -26 -40 -42 -40 -11 0 -54 -10 -95 -22 l-73 -22 -29 35
c-36 42 -34 40 -97 120 -29 37 -52 72 -52 78 0 6 14 11 31 11 17 0 40 5 51 11
21 11 92 26 137 28 15 1 41 -14 70 -40z m-1199 -32 c0 -18 -35 -62 -105 -132
-81 -81 -134 -125 -83 -70 107 116 128 141 128 147 0 7 50 68 56 68 2 0 4 -6
4 -13z m845 -141 c-6 -140 -8 -152 -36 -159 -15 -4 -19 -1 -15 11 3 9 8 55 11
102 4 47 11 93 16 102 5 9 8 21 8 25 -2 9 11 43 17 43 2 0 1 -56 -1 -124z
m100 9 c1 -5 6 -9 13 -7 7 1 12 -2 12 -7 0 -6 11 -22 25 -37 14 -15 24 -32 22
-38 -3 -9 -130 -59 -133 -53 0 1 4 45 9 98 l10 96 21 -21 c12 -12 21 -25 21
-31z m288 -113 c-10 -24 -44 -82 -50 -82 -2 0 -2 4 1 9 4 5 -7 20 -23 34 l-29
24 31 14 c49 22 78 22 70 1z m-90 -95 c20 -20 27 -33 21 -45 -4 -9 -7 -20 -6
-24 1 -3 -11 -4 -26 -2 -15 2 -40 6 -57 8 -16 2 -50 8 -75 12 -25 4 -56 8 -70
8 -28 1 -50 18 -50 39 0 10 25 19 80 30 45 9 88 21 98 26 18 10 24 6 85 -52z
m-215 -93 c15 -4 32 -11 39 -16 6 -5 34 -10 62 -11 28 -1 51 -5 51 -9 0 -5 3
-7 8 -7 22 4 46 -2 36 -9 -18 -11 -105 -203 -97 -215 3 -5 2 -7 -4 -4 -10 6
-69 -112 -76 -150 -2 -10 -10 -34 -18 -53 -9 -19 -26 -73 -39 -119 -14 -46
-30 -86 -37 -88 -7 -3 -10 -10 -6 -16 3 -6 1 -7 -5 -3 -7 4 -8 15 -3 29 5 12
9 96 11 187 5 383 14 504 37 496 8 -4 27 -9 41 -12z m-228 -41 c0 -21 -3 -24
-9 -14 -5 8 -7 20 -4 28 8 21 13 15 13 -14z m-10 -73 c0 -16 -4 -30 -8 -30 -5
0 -7 14 -4 30 2 17 6 30 8 30 2 0 4 -13 4 -30z"/>
<path d="M2618 5332 c-10 -2 -18 -8 -18 -14 0 -6 22 -8 55 -6 30 1 55 0 55 -3
0 -4 13 -12 28 -18 16 -7 43 -25 61 -42 33 -29 51 -37 51 -20 0 12 -54 51 -70
51 -6 0 -9 4 -6 9 12 19 -109 52 -156 43z"/>
<path d="M2917 5222 c-10 -10 -17 -33 -17 -52 0 -21 -8 -39 -22 -51 -11 -11
-17 -19 -12 -19 6 0 15 5 22 12 20 20 15 -12 -8 -49 -11 -18 -16 -33 -11 -33
6 0 13 9 16 20 9 29 25 14 25 -23 0 -42 29 -180 39 -187 5 -3 7 -13 5 -23 -3
-21 42 -77 61 -77 8 0 17 5 21 12 5 8 0 9 -16 5 -16 -4 -20 -3 -12 5 7 7 6 20
-3 42 -30 71 -57 232 -57 334 1 56 -3 102 -7 102 -4 0 -15 -8 -24 -18z"/>
<path d="M2705 5220 c4 -6 11 -8 16 -5 14 9 11 15 -7 15 -8 0 -12 -5 -9 -10z"/>
<path d="M2740 5212 c0 -7 10 -26 21 -42 18 -24 21 -37 15 -77 -10 -71 -11
-77 -17 -88 -3 -6 -9 -19 -12 -30 -5 -15 -2 -13 16 7 12 16 24 36 25 45 1 10
4 43 7 73 6 51 4 57 -24 90 -17 19 -31 29 -31 22z"/>
<path d="M2464 5198 c-5 -7 -2 -9 8 -5 9 3 19 2 24 -3 15 -13 117 -23 109 -10
-3 6 -10 8 -15 5 -5 -3 -18 -2 -27 4 -31 16 -91 22 -99 9z"/>
<path d="M2841 5150 l1 -45 8 35 c5 20 5 39 -1 45 -5 5 -9 -8 -8 -35z"/>
<path d="M3270 5172 c-8 -3 -21 -11 -28 -19 -8 -7 -17 -11 -22 -8 -4 3 -10 -2
-14 -10 -8 -22 20 -19 44 5 12 12 20 15 20 8 0 -10 2 -10 9 0 4 8 12 13 17 12
5 -1 10 3 12 8 3 10 -15 11 -38 4z"/>
<path d="M2834 5092 c3 -5 0 -13 -6 -15 -9 -4 -10 -6 -1 -6 17 -1 25 16 12 25
-7 4 -9 3 -5 -4z"/>
<path d="M3425 5090 c-3 -5 -3 -10 0 -10 4 0 -3 -12 -14 -27 -12 -14 -19 -28
-16 -31 8 -8 44 41 45 61 0 19 -6 22 -15 7z"/>
<path d="M2475 5071 c-19 -8 -19 -8 2 -15 24 -8 43 -1 43 15 0 11 -17 11 -45
0z"/>
<path d="M2530 5070 c0 -5 7 -6 17 -3 11 4 14 3 9 -5 -4 -7 -2 -12 5 -12 7 0
27 -11 45 -25 35 -26 69 -33 61 -12 -2 6 -11 11 -20 11 -9 -1 -14 2 -11 7 3 5
-16 18 -41 29 -52 22 -65 24 -65 10z"/>
<path d="M3562 5045 c2 -19 1 -35 -3 -35 -4 0 -11 -15 -14 -32 -4 -18 -12 -39
-18 -46 -5 -7 -7 -15 -4 -18 3 -4 -1 -13 -9 -21 -15 -16 -15 -33 1 -36 5 -1
16 18 24 43 9 25 20 51 24 58 5 6 6 16 2 21 -3 5 -1 12 4 15 12 8 12 86 -1 86
-6 0 -8 -15 -6 -35z"/>
<path d="M3299 5008 c-12 -23 -12 -23 10 -4 23 21 26 26 11 26 -5 0 -15 -10
-21 -22z"/>
<path d="M2664 4994 c-13 -5 10 -63 30 -76 7 -5 6 -8 -4 -8 -11 0 -11 -3 -2
-12 6 -6 15 -8 19 -4 6 6 3 19 -22 80 -6 15 -5 17 5 11 9 -5 11 -4 6 3 -8 13
-13 14 -32 6z"/>
<path d="M2823 4985 c-9 -25 4 -29 17 -6 7 15 7 21 0 21 -6 0 -13 -7 -17 -15z"/>
<path d="M3342 4943 c-9 -21 -23 -44 -29 -51 -19 -19 -16 -27 3 -11 16 13 64
84 64 94 0 3 -5 5 -10 5 -6 0 -18 -17 -28 -37z"/>
<path d="M3655 4953 c2 -10 4 -25 4 -33 1 -12 3 -13 10 -1 10 15 3 51 -9 51
-5 0 -7 -8 -5 -17z"/>
<path d="M2785 4913 c-26 -39 -31 -53 -17 -53 5 0 17 20 29 45 11 25 19 45 17
45 -2 0 -15 -17 -29 -37z"/>
<path d="M3659 4890 c-1 -8 -2 -29 -3 -45 -1 -17 -6 -36 -10 -43 -4 -7 -1 -12
7 -12 10 0 16 13 19 40 3 38 -8 94 -13 60z"/>
<path d="M3483 4827 c-22 -27 -24 -37 -9 -37 18 0 40 36 27 44 -5 3 -13 0 -18
-7z"/>
<path d="M4072 4788 c-6 -6 -12 -18 -12 -26 0 -7 -4 -11 -9 -7 -5 3 -18 -6
-29 -20 -11 -14 -25 -25 -31 -25 -6 0 -11 -3 -11 -8 0 -4 -25 -22 -55 -40 -30
-18 -55 -38 -55 -44 0 -6 -3 -9 -6 -5 -8 8 -65 -21 -82 -42 -10 -12 -12 -12
-6 -1 7 13 6 13 -12 0 -10 -8 -22 -19 -26 -25 -4 -5 -8 -6 -8 -1 0 5 -10 -2
-23 -15 -13 -13 -37 -35 -53 -49 -65 -54 -72 -81 -49 -203 7 -35 0 -66 -27
-123 -5 -12 -8 -30 -5 -40 4 -15 7 -13 18 14 7 17 17 32 22 32 4 0 6 4 3 9 -3
5 1 14 9 21 8 7 15 24 15 38 0 38 38 107 70 125 35 21 91 105 89 132 -3 26 17
75 30 75 6 0 8 8 5 18 -4 12 -3 13 3 4 10 -14 43 -6 43 10 0 5 4 7 9 3 5 -3
15 0 23 7 7 7 32 26 55 42 38 25 95 85 116 123 12 20 4 36 -11 21z m-280 -260
c-5 -7 -13 -24 -17 -38 -7 -24 -55 -89 -55 -75 0 4 -20 -9 -45 -29 -36 -30
-45 -34 -45 -19 2 55 106 162 169 172 2 1 -1 -5 -7 -11z"/>
<path d="M3449 4764 c-12 -14 -11 -16 5 -13 11 2 21 10 24 17 5 17 -13 15 -29
-4z"/>
<path d="M3426 4721 c-3 -5 1 -11 9 -15 9 -3 15 0 15 9 0 16 -16 20 -24 6z"/>
<path d="M3412 4691 c2 -7 7 -12 11 -12 12 1 9 15 -3 20 -7 2 -11 -2 -8 -8z"/>
<path d="M3376 4627 c-14 -24 -26 -47 -26 -52 0 -14 41 28 56 57 24 46 -3 42
-30 -5z"/>
<path d="M3530 4640 c-6 -11 -7 -20 -2 -20 6 0 12 9 15 20 3 11 3 20 1 20 -2
0 -8 -9 -14 -20z"/>
<path d="M3240 4535 c-8 -10 -9 -15 -1 -15 6 0 11 5 11 10 0 20 16 10 17 -11
1 -14 -3 -19 -12 -15 -9 3 -12 0 -8 -10 3 -7 12 -14 20 -14 10 0 13 9 11 32
-3 36 -19 46 -38 23z"/>
<path d="M3471 4520 c-5 -16 -8 -30 -6 -30 2 0 10 14 19 30 8 17 11 30 6 30
-4 0 -13 -13 -19 -30z"/>
<path d="M3098 4534 c-22 -22 7 -64 33 -48 15 9 10 27 -5 21 -10 -4 -16 1 -18
15 -2 11 -6 16 -10 12z"/>
<path d="M3298 4483 c-7 -27 9 -41 25 -23 9 10 9 11 0 6 -7 -4 -13 2 -15 16
l-3 23 -7 -22z"/>
<path d="M3173 4455 l6 -35 -57 0 c-52 0 -127 -17 -177 -39 -70 -31 -158 -78
-167 -89 -19 -22 -1 -24 40 -3 22 11 42 17 46 14 3 -4 6 -2 6 4 0 5 6 10 13
10 6 0 19 4 28 7 13 6 18 -1 23 -29 14 -72 113 -96 164 -39 24 27 28 67 12
108 -9 25 -8 26 20 24 16 -1 26 -6 24 -10 -3 -5 2 -11 10 -14 20 -8 20 -27 1
-64 -13 -25 -13 -29 1 -34 8 -3 13 -2 10 2 -3 5 4 16 14 25 15 12 19 26 16 50
-6 46 2 54 56 60 46 5 47 5 64 -31 9 -20 18 -47 19 -59 2 -39 11 -34 13 8 3
37 -22 97 -40 100 -28 5 -36 4 -60 -2 -37 -10 -72 15 -64 47 5 18 2 24 -10 24
-13 0 -16 -7 -11 -35z"/>
<path d="M3210 4472 c0 -12 4 -22 9 -22 10 0 9 26 -2 36 -4 4 -7 -2 -7 -14z"/>
<path d="M3241 4367 c-18 -22 -3 -49 27 -45 17 2 26 10 28 26 2 12 0 22 -5 22
-5 0 -16 2 -24 5 -7 3 -19 0 -26 -8z m39 -17 c0 -5 -7 -10 -15 -10 -8 0 -15 5
-15 10 0 6 7 10 15 10 8 0 15 -4 15 -10z"/>
<path d="M2624 4335 c-7 -11 -14 -33 -18 -50 -10 -45 -16 -75 -26 -128 -5 -27
-18 -68 -29 -92 -14 -32 -16 -46 -7 -55 8 -8 7 -10 -5 -5 -13 5 -23 -9 -45
-67 -16 -40 -36 -88 -45 -106 -18 -35 -15 -67 7 -76 8 -3 14 -17 14 -31 0 -33
16 -64 49 -92 59 -51 145 -7 165 85 4 17 11 32 16 32 17 0 5 40 -13 46 -28 9
-60 -12 -87 -57 -14 -21 -28 -39 -31 -39 -4 0 -25 21 -49 46 -32 35 -40 51
-35 67 3 12 7 28 7 35 1 6 6 12 11 12 6 0 8 3 4 6 -5 5 23 71 54 127 7 13 7
23 -1 32 -8 10 -8 15 1 21 8 5 10 3 4 -7 -5 -8 -4 -11 1 -6 5 5 9 12 10 15 0
4 8 23 17 42 21 49 49 190 45 232 -3 30 -4 31 -14 13z m36 -595 c0 -38 -25
-73 -64 -91 l-39 -17 -29 28 c-15 16 -28 34 -28 42 1 8 8 4 20 -10 13 -15 28
-22 48 -20 24 2 34 10 51 45 22 45 41 56 41 23z"/>
<path d="M3309 4230 c-10 -7 -11 -16 -3 -37 14 -40 40 -42 49 -3 9 41 -13 60
-46 40z m33 -25 c0 -5 -5 -11 -11 -13 -6 -2 -11 4 -11 13 0 9 5 15 11 13 6 -2
11 -8 11 -13z"/>
<path d="M3350 4135 c0 -5 5 -17 10 -25 5 -8 10 -10 10 -5 0 6 -5 17 -10 25
-5 8 -10 11 -10 5z"/>
<path d="M3347 4078 c-2 -7 -1 -22 3 -33 4 -12 1 -25 -7 -34 -12 -11 -12 -15
-1 -22 7 -5 8 -9 3 -9 -6 0 -19 -15 -29 -34 -30 -55 -98 -74 -139 -38 -16 14
-16 17 -1 33 17 19 40 16 28 -3 -4 -7 -2 -8 4 -4 18 11 2 37 -21 34 -33 -5
-45 -34 -27 -66 13 -22 24 -28 59 -30 65 -5 108 16 102 51 0 4 3 7 8 7 8 0 12
11 26 63 2 4 4 8 5 10 1 1 4 21 5 45 3 40 -7 57 -18 30z"/>
<path d="M3044 3985 c-7 -26 11 -59 27 -49 5 3 9 -1 9 -8 1 -8 8 -4 19 9 23
28 17 59 -12 67 -34 9 -36 8 -43 -19z m43 4 c14 -14 6 -39 -12 -39 -15 0 -24
19 -17 38 5 15 15 15 29 1z"/>
<path d="M2910 3989 c0 -5 5 -7 10 -4 6 3 10 -1 10 -10 0 -9 -4 -13 -10 -10
-5 3 -10 2 -10 -4 0 -19 19 -21 29 -3 7 13 7 22 -1 30 -15 15 -28 15 -28 1z"/>
<path d="M3395 3960 c-3 -5 -4 -10 -1 -10 3 0 -1 -19 -10 -42 -8 -22 -12 -43
-10 -45 2 -3 -18 -25 -45 -51 -32 -29 -46 -49 -40 -55 13 -13 82 56 104 105
10 21 17 53 15 73 -2 38 -4 40 -13 25z"/>
<path d="M3450 3935 c6 -8 9 -18 6 -23 -3 -5 1 -9 9 -9 8 0 12 4 9 9 -3 4 0 8
7 8 8 0 8 4 -1 15 -7 8 -19 15 -27 15 -12 0 -13 -3 -3 -15z"/>
<path d="M3060 3869 c0 -22 27 -32 34 -13 4 9 2 12 -5 8 -6 -4 -15 0 -20 7 -7
11 -9 11 -9 -2z"/>
<path d="M3194 3822 c-24 -8 -19 -35 7 -40 12 -2 17 5 17 23 0 14 -1 25 -2 24
0 -1 -11 -4 -22 -7z"/>
<path d="M3247 3740 c-9 -11 -17 -25 -17 -30 0 -6 -4 -10 -10 -10 -5 0 -9 -3
-9 -7 1 -5 0 -10 -1 -13 -1 -3 -3 -20 -5 -38 -2 -29 0 -32 12 -19 8 8 16 26
16 40 1 14 5 23 10 20 4 -2 7 0 7 5 0 5 9 19 20 32 18 21 19 40 2 40 -4 0 -15
-9 -25 -20z"/>
<path d="M3336 3691 c-3 -5 0 -13 7 -19 15 -13 42 1 33 17 -9 13 -33 15 -40 2z"/>
<path d="M3264 3648 c-7 -24 3 -35 18 -20 14 14 28 16 28 2 0 -18 -44 -51 -60
-44 -8 3 -21 8 -27 11 -7 3 -13 -2 -13 -11 0 -9 6 -17 13 -17 6 -1 22 -3 35
-4 13 -1 26 4 29 11 3 8 9 12 14 9 11 -7 28 27 26 53 -1 24 -1 23 -34 27 -15
1 -25 -4 -29 -17z"/>
<path d="M3110 3584 c0 -8 5 -12 10 -9 6 3 10 10 10 16 0 5 -4 9 -10 9 -5 0
-10 -7 -10 -16z"/>
<path d="M2750 3549 c-171 -26 -230 -39 -230 -50 0 -5 18 -9 40 -9 31 0 40 4
40 18 0 12 3 13 8 5 4 -7 17 -11 27 -9 11 2 47 7 80 10 119 13 205 29 222 42
16 12 13 13 -22 13 -22 -1 -96 -9 -165 -20z"/>
<path d="M3210 3500 c0 -6 -4 -8 -10 -5 -6 3 -7 -1 -3 -10 4 -12 8 -13 13 -5
4 6 10 11 14 11 11 -2 8 13 -3 17 -6 2 -11 -1 -11 -8z"/>
<path d="M2210 3358 c0 -16 40 -77 40 -63 0 6 5 2 11 -7 5 -10 17 -18 25 -18
8 0 13 -4 10 -9 -5 -8 32 -23 50 -21 3 1 11 -6 18 -16 9 -12 15 -14 20 -6 10
16 -2 32 -23 32 -10 0 -34 13 -52 30 -19 16 -36 30 -39 30 -3 0 -14 14 -23 30
-19 31 -37 40 -37 18z"/>
<path d="M2271 3344 c0 -11 3 -14 6 -6 3 7 2 16 -1 19 -3 4 -6 -2 -5 -13z"/>
<path d="M2115 3248 c12 -41 30 -78 37 -78 5 0 8 -5 8 -11 0 -15 42 -48 62
-49 9 0 20 -5 23 -10 3 -6 17 -8 31 -6 14 3 22 1 19 -5 -4 -5 -17 -9 -30 -9
-25 0 -43 -18 -29 -29 12 -8 13 -61 2 -61 -5 0 -7 -12 -5 -27 2 -16 0 -37 -5
-48 -9 -19 -8 -19 6 -2 8 11 13 28 11 39 -3 12 -1 26 3 32 11 18 10 70 -2 78
-6 4 3 6 21 4 18 -3 39 2 50 11 10 8 11 11 3 7 -12 -6 -13 -4 -2 7 20 21 14
30 -18 24 -16 -3 -30 -1 -30 3 0 5 -14 8 -30 7 -17 -1 -28 0 -26 3 3 2 -9 16
-25 30 -31 26 -53 65 -58 102 0 6 -6 10 -12 10 -6 0 -8 -9 -4 -22z"/>
<path d="M2250 3221 c0 -6 4 -11 8 -11 4 0 6 -16 4 -35 -2 -19 0 -35 5 -35 4
0 8 15 8 32 0 31 2 33 37 33 20 0 40 4 44 8 4 4 -13 7 -38 6 -24 -1 -50 1 -56
5 -7 4 -12 2 -12 -3z"/>
<path d="M2186 3071 c9 -9 34 -9 34 -1 0 5 -9 8 -20 7 -10 -1 -17 -3 -14 -6z"/>
<path d="M2148 2555 c0 -11 -2 -25 -2 -31 -1 -6 -8 -19 -15 -28 -11 -13 -11
-19 -3 -27 7 -5 10 -6 7 -2 -3 3 2 17 10 30 9 13 13 23 9 23 -4 0 -1 7 6 15
10 12 10 19 2 27 -9 9 -12 7 -14 -7z"/>
<path d="M3854 4255 c6 -27 11 -71 20 -165 2 -19 9 -64 16 -100 7 -36 13 -76
14 -88 2 -24 36 -54 36 -32 0 5 -6 10 -12 10 -9 0 -8 4 2 10 9 6 10 10 3 10
-7 0 -10 10 -7 25 2 15 1 31 -3 38 -4 7 -6 23 -4 36 2 16 -1 21 -10 16 -7 -5
-10 -4 -5 3 5 9 -6 73 -22 122 -2 8 -6 33 -8 55 -6 59 -9 74 -18 82 -5 4 -5
-5 -2 -22z"/>
<path d="M3719 3940 c-1 -5 -3 -19 -4 -30 -1 -11 -3 -21 -4 -22 -8 -10 -9 -48
-2 -48 6 0 8 9 6 20 -2 11 -1 22 3 24 9 5 15 66 7 66 -3 0 -6 -4 -6 -10z"/>
<path d="M3794 3901 c0 -22 3 -38 8 -35 10 7 11 74 0 74 -4 0 -8 -18 -8 -39z"/>
<path d="M4000 3840 c0 -5 5 -10 11 -10 5 0 7 5 4 10 -3 6 -8 10 -11 10 -2 0
-4 -4 -4 -10z"/>
<path d="M3700 3820 c0 -5 5 -10 11 -10 5 0 7 5 4 10 -3 6 -8 10 -11 10 -2 0
-4 -4 -4 -10z"/>
<path d="M4013 3785 c0 -8 4 -12 9 -9 5 3 6 10 3 15 -9 13 -12 11 -12 -6z"/>
<path d="M3839 3718 c-6 -12 -4 -118 2 -118 3 0 6 27 6 60 -1 52 -3 68 -8 58z"/>
<path d="M4021 3704 c0 -11 3 -14 6 -6 3 7 2 16 -1 19 -3 4 -6 -2 -5 -13z"/>
<path d="M4022 3660 c0 -14 2 -19 5 -12 2 6 2 18 0 25 -3 6 -5 1 -5 -13z"/>
<path d="M3830 3559 c0 -11 5 -17 10 -14 6 3 10 13 10 21 0 8 -4 14 -10 14 -5
0 -10 -9 -10 -21z"/>
<path d="M3830 3516 c0 -9 0 -19 -1 -23 0 -4 3 -9 8 -10 12 -4 14 35 2 42 -5
4 -9 -1 -9 -9z"/>
<path d="M3829 3468 c0 -2 -2 -10 -4 -19 -1 -9 -6 -31 -10 -48 -4 -19 -3 -31
4 -31 13 0 25 44 18 70 -3 10 0 21 7 24 7 3 7 5 -1 5 -7 1 -13 0 -14 -1z"/>
<path d="M3497 3433 c-4 -3 -7 -11 -7 -17 0 -6 5 -5 12 2 6 6 9 14 7 17 -3 3
-9 2 -12 -2z"/>
<path d="M3565 3399 c-4 -6 -5 -12 -2 -15 2 -3 7 2 10 11 7 17 1 20 -8 4z"/>
<path d="M3492 3360 c-7 -11 -8 -20 -3 -20 9 0 24 30 18 36 -1 2 -8 -6 -15
-16z"/>
<path d="M4020 3248 c-3 -31 -1 -53 3 -49 5 5 7 30 5 57 l-3 49 -5 -57z"/>
<path d="M3997 2795 c3 -8 9 -12 14 -9 12 7 11 11 -5 17 -10 4 -13 1 -9 -8z"/>
<path d="M4194 3284 c-3 -10 -12 -36 -20 -56 -8 -21 -10 -38 -5 -38 10 0 43
101 36 109 -3 2 -7 -5 -11 -15z"/>
<path d="M4152 3155 c-7 -14 -12 -31 -12 -38 1 -7 7 3 16 22 17 39 13 54 -4
16z"/>
<path d="M3143 603 c4 -3 2 -12 -4 -19 -13 -16 -30 -74 -21 -74 8 0 35 57 39
83 2 9 -2 17 -9 17 -6 0 -8 -3 -5 -7z"/>
<path d="M3100 485 c-8 -9 -8 -15 -2 -15 12 0 26 19 19 26 -2 2 -10 -2 -17
-11z"/>
<path d="M3085 449 c-4 -6 -4 -13 -1 -16 3 -3 0 -15 -6 -27 -7 -11 -11 -24
-10 -27 0 -4 -9 -39 -22 -78 -13 -39 -20 -71 -16 -71 7 0 19 28 24 55 1 6 11
37 21 70 11 33 20 65 20 70 0 6 4 16 8 23 5 6 4 12 -2 12 -5 0 -13 -5 -16 -11z"/>
<path d="M3020 209 c0 -5 5 -7 10 -4 6 3 10 8 10 11 0 2 -4 4 -10 4 -5 0 -10
-5 -10 -11z"/>
<path d="M2987 140 c-3 -11 -1 -20 4 -20 5 0 9 2 9 4 0 2 3 11 6 20 3 9 2 16
-4 16 -5 0 -12 -9 -15 -20z"/>
<path d="M3100 75 c-13 -14 -20 -25 -16 -25 11 0 50 39 44 45 -2 3 -15 -6 -28
-20z"/>
<path d="M2962 35 c0 -17 2 -22 5 -12 2 9 2 23 0 30 -3 6 -5 -1 -5 -18z"/>
<path d="M3045 30 c-3 -5 1 -10 10 -10 9 0 13 5 10 10 -3 6 -8 10 -10 10 -2 0
-7 -4 -10 -10z"/>
</g>
</svg>
